<?xml version="1.0" standalone="no"?><!DOCTYPE svg PUBLIC "-//W3C//DTD SVG 1.1//EN" "http://www.w3.org/Graphics/SVG/1.1/DTD/svg11.dtd"><svg t="1625459002937" class="icon" viewBox="0 0 1152 1024" version="1.1" xmlns="http://www.w3.org/2000/svg" p-id="4134" xmlns:xlink="http://www.w3.org/1999/xlink" width="121.5" height="108"><defs><style type="text/css">@font-face { font-family: element-icons; src: url("chrome-extension://moombeodfomdpjnpocobemoiaemednkg/fonts/element-icons.woff") format("woff"), url("chrome-extension://moombeodfomdpjnpocobemoiaemednkg/fonts/element-icons.ttf ") format("truetype"); }
</style></defs><path d="M841.1 603.86a48 48 0 1 1 48-48 48 48 0 0 1-48 48m-530.2 0a48 48 0 1 1 48-48 48 48 0 0 1-48 48m547.4-288.96l95.88-166a20 20 0 1 0-34.54-20l-97.08 168.14a602.5 602.5 0 0 0-493.12 0l-97.08-168.14a20 20 0 1 0-34.54 20l95.88 166C129.06 404.44 16.48 571.1 0 768h1152c-16.48-196.9-129.08-363.56-293.7-453.1" p-id="4135" fill="#3dda84"></path></svg>