<?xml version="1.0" standalone="no"?><!DOCTYPE svg PUBLIC "-//W3C//DTD SVG 1.1//EN" "http://www.w3.org/Graphics/SVG/1.1/DTD/svg11.dtd"><svg t="1625459776443" class="icon" viewBox="0 0 1024 1024" version="1.1" xmlns="http://www.w3.org/2000/svg" p-id="2702" xmlns:xlink="http://www.w3.org/1999/xlink" width="108" height="108"><defs><style type="text/css">@font-face { font-family: element-icons; src: url("chrome-extension://moombeodfomdpjnpocobemoiaemednkg/fonts/element-icons.woff") format("woff"), url("chrome-extension://moombeodfomdpjnpocobemoiaemednkg/fonts/element-icons.ttf ") format("truetype"); }
</style></defs><path d="M922.08128 746.37312c-1.26976 3.88096-21.01248 72.74496-69.65248 143.59552-42.0864 61.16352-85.53472 122.73664-154.24512 123.86304-67.51232 1.19808-89.21088-40.28416-166.28736-40.28416-77.01504 0-101.24288 39.15776-165.07904 41.4208-65.98656 2.74432-116.76672-66.77504-158.99648-127.60064-86.25152-124.60032-152.70912-353.06496-63.6416-506.1632 43.8272-76.61568 122.66496-125.32736 208.44544-126.67904 64.64512-1.19808 126.13632 43.76576 165.48864 43.76576 40.35584 0 114.76992-54.40512 193.26976-46.30528 32.84992 1.40288 124.79488 13.78304 184.0128 99.50208-4.61824 3.14368-110.00832 65.31072-108.81024 191.65184C788.18304 695.84896 920.60672 745.89184 922.08128 746.37312M660.03968 170.28096c35.39968-43.15136 58.6752-102.44096 52.60288-161.3312-50.5856 2.01728-112.14848 33.52576-148.75648 76.42112-32.31744 37.40672-60.89728 97.6384-52.93056 155.8528C567.0912 244.6336 624.8448 211.84512 660.03968 170.28096" p-id="2703" fill="#666666"></path></svg>