<?xml version="1.0" encoding="utf-8"?>
<!-- Generator: Adobe Illustrator 23.1.0, SVG Export Plug-In . SVG Version: 6.00 Build 0)  -->
<svg version="1.1" id="暂无内容" xmlns="http://www.w3.org/2000/svg" xmlns:xlink="http://www.w3.org/1999/xlink" x="0px"
	 y="0px" viewBox="0 0 800 800" style="enable-background:new 0 0 800 800;" xml:space="preserve">
<style type="text/css">
	.st0{fill:url(#SVGID_1_);}
	.st1{fill:url(#SVGID_2_);}
	.st2{fill:url(#SVGID_3_);}
	.st3{fill:url(#SVGID_4_);}
	.st4{fill:url(#SVGID_5_);}
	.st5{fill:url(#SVGID_6_);}
	.st6{fill:url(#SVGID_7_);}
	.st7{fill:url(#SVGID_8_);}
	.st8{fill:url(#SVGID_9_);}
	.st9{fill:url(#SVGID_10_);}
	.st10{fill:url(#SVGID_11_);}
	.st11{fill:url(#SVGID_12_);}
	.st12{fill:#F4AFAE;}
	.st13{fill:url(#SVGID_13_);}
	.st14{fill:url(#SVGID_14_);}
	.st15{fill:url(#SVGID_15_);}
	.st16{fill:#FFFFFF;}
	.st17{fill:#FC7070;}
	.st18{fill:#FADAD4;}
	.st19{fill:url(#SVGID_16_);}
	.st20{fill:none;stroke:#2EA7E0;stroke-miterlimit:10;}
	.st21{fill:url(#SVGID_17_);}
	.st22{fill:#FFDCEE;}
	.st23{fill:url(#SVGID_18_);}
	.st24{fill:#4C2C00;}
	.st25{fill:#F48484;}
	.st26{fill:#F7B7B7;}
	.st27{fill:url(#SVGID_19_);}
	.st28{fill:url(#SVGID_20_);}
	.st29{fill:url(#SVGID_21_);}
	.st30{fill:url(#SVGID_22_);}
	.st31{fill:url(#SVGID_23_);}
	.st32{fill:url(#SVGID_24_);}
	.st33{fill:url(#SVGID_25_);}
	.st34{fill:url(#SVGID_26_);}
	.st35{fill:url(#SVGID_27_);}
	.st36{fill:url(#SVGID_28_);}
	.st37{fill:url(#SVGID_29_);}
	.st38{fill:url(#SVGID_30_);}
	.st39{fill:url(#SVGID_31_);}
	.st40{fill:url(#SVGID_32_);}
	.st41{fill:url(#SVGID_33_);}
	.st42{fill:url(#SVGID_34_);}
	.st43{fill:url(#SVGID_35_);}
	.st44{fill:url(#SVGID_36_);}
	.st45{fill:url(#SVGID_37_);}
	.st46{fill:url(#SVGID_38_);}
	.st47{fill:url(#SVGID_39_);}
	.st48{fill:url(#SVGID_40_);}
	.st49{fill:#F6F5F0;}
	.st50{fill:#F0EDE1;}
	.st51{fill:url(#SVGID_41_);}
	.st52{fill:url(#SVGID_42_);}
	.st53{fill:url(#SVGID_43_);}
	.st54{fill:url(#SVGID_44_);}
	.st55{fill:url(#SVGID_45_);}
	.st56{fill:url(#SVGID_46_);}
	.st57{fill:url(#SVGID_47_);}
	.st58{fill:url(#SVGID_48_);}
	.st59{fill:url(#SVGID_49_);}
	.st60{fill:url(#SVGID_50_);}
	.st61{fill:url(#SVGID_51_);}
	.st62{fill:url(#SVGID_52_);}
	.st63{fill:url(#SVGID_53_);}
	.st64{fill:url(#SVGID_54_);}
	.st65{fill:url(#SVGID_55_);}
	.st66{fill:url(#SVGID_56_);}
	.st67{fill:url(#SVGID_57_);}
	.st68{fill:url(#SVGID_58_);}
	.st69{fill:url(#SVGID_59_);}
	.st70{fill:url(#SVGID_60_);}
	.st71{fill:#F79C9B;}
	.st72{fill:url(#SVGID_61_);}
	.st73{fill:url(#SVGID_62_);}
	.st74{fill:url(#SVGID_63_);}
	.st75{fill:url(#SVGID_64_);}
	.st76{fill:url(#SVGID_65_);}
	.st77{fill:url(#SVGID_66_);}
	.st78{fill:url(#SVGID_67_);}
	.st79{fill:url(#SVGID_68_);}
	.st80{fill:url(#SVGID_69_);}
	.st81{fill:url(#SVGID_70_);}
	.st82{fill:url(#SVGID_71_);}
	.st83{fill:url(#SVGID_72_);}
	.st84{fill:url(#SVGID_73_);}
	.st85{fill:url(#SVGID_74_);}
	.st86{fill:url(#SVGID_75_);}
	.st87{fill:#EF6563;}
	.st88{fill:url(#SVGID_76_);}
	.st89{fill:#F18C8A;}
	.st90{fill:#F9C3C0;}
	.st91{fill:url(#SVGID_77_);}
	.st92{fill:url(#SVGID_78_);}
	.st93{fill:url(#SVGID_79_);}
	.st94{fill:url(#SVGID_80_);}
	.st95{fill:url(#SVGID_81_);}
	.st96{fill:url(#SVGID_82_);}
	.st97{fill:url(#SVGID_83_);}
	.st98{fill:url(#SVGID_84_);}
	.st99{fill:url(#SVGID_85_);}
	.st100{fill:url(#SVGID_86_);}
	.st101{fill:url(#SVGID_87_);}
	.st102{fill:url(#SVGID_88_);}
	.st103{fill:url(#SVGID_89_);}
	.st104{fill:url(#SVGID_90_);}
	.st105{fill:url(#SVGID_91_);}
	.st106{fill:url(#SVGID_92_);}
	.st107{fill:url(#SVGID_93_);}
	.st108{fill:url(#SVGID_94_);}
	.st109{fill:url(#SVGID_95_);}
	.st110{fill:url(#SVGID_96_);}
	.st111{fill:url(#SVGID_97_);}
	.st112{fill:url(#SVGID_98_);}
	.st113{fill:url(#SVGID_99_);}
	.st114{fill:url(#SVGID_100_);}
	.st115{fill:url(#SVGID_101_);}
	.st116{fill:url(#SVGID_102_);}
	.st117{fill:url(#SVGID_103_);}
	.st118{fill:#F4BAD9;}
	.st119{fill:url(#SVGID_104_);}
	.st120{fill:url(#SVGID_105_);}
	.st121{fill:url(#SVGID_106_);}
	.st122{fill:url(#SVGID_107_);}
	.st123{fill:url(#SVGID_108_);}
	.st124{fill:url(#SVGID_109_);}
	.st125{fill:url(#SVGID_110_);}
	.st126{fill:url(#SVGID_111_);}
	.st127{fill:url(#SVGID_112_);}
	.st128{fill:url(#SVGID_113_);}
	.st129{fill:url(#SVGID_114_);}
	.st130{fill:url(#SVGID_115_);}
	.st131{fill:url(#SVGID_116_);}
	.st132{fill:url(#SVGID_117_);}
	.st133{fill:url(#SVGID_118_);}
	.st134{fill:#F37170;}
	.st135{fill:#F5AEAD;}
	.st136{fill:url(#SVGID_119_);}
	.st137{fill:url(#SVGID_120_);}
	.st138{fill:url(#SVGID_121_);}
	.st139{fill:url(#SVGID_122_);}
	.st140{fill:url(#SVGID_123_);}
	.st141{fill:url(#SVGID_124_);}
	.st142{fill:url(#SVGID_125_);}
	.st143{fill:url(#SVGID_126_);}
	.st144{fill:url(#SVGID_127_);}
	.st145{fill:url(#SVGID_128_);}
	.st146{fill:url(#SVGID_129_);}
	.st147{fill:url(#SVGID_130_);}
	.st148{fill:url(#SVGID_131_);}
	.st149{fill:url(#SVGID_132_);}
	.st150{fill:url(#SVGID_133_);}
	.st151{fill:url(#SVGID_134_);}
	.st152{fill:url(#SVGID_135_);}
	.st153{fill:url(#SVGID_136_);}
	.st154{fill:url(#SVGID_137_);}
	.st155{fill:url(#SVGID_138_);}
	.st156{fill:url(#SVGID_139_);}
	.st157{fill:#F68382;}
	.st158{fill:#F7F8F8;}
	.st159{fill:#E86867;}
	.st160{fill:#B6DFFF;}
	.st161{fill:none;stroke:#4C2C00;stroke-width:6;stroke-linecap:round;stroke-miterlimit:10;}
	.st162{fill:url(#SVGID_140_);}
	.st163{fill:url(#SVGID_141_);}
	.st164{fill:url(#SVGID_142_);}
	.st165{fill:url(#SVGID_143_);}
	.st166{fill:url(#SVGID_144_);}
	.st167{fill:url(#SVGID_145_);}
	.st168{fill:url(#SVGID_146_);}
	.st169{fill:url(#SVGID_147_);}
	.st170{fill:url(#SVGID_148_);}
	.st171{fill:url(#SVGID_149_);}
	.st172{fill:url(#SVGID_150_);}
	.st173{fill:url(#SVGID_151_);}
	.st174{fill:url(#SVGID_152_);}
	.st175{fill:url(#SVGID_153_);}
	.st176{fill:url(#SVGID_154_);}
	.st177{fill:url(#SVGID_155_);}
	.st178{fill:url(#SVGID_156_);}
	.st179{fill:#F79B9A;}
	.st180{fill:url(#SVGID_157_);}
	.st181{fill:url(#SVGID_158_);}
	.st182{fill:url(#SVGID_159_);}
	.st183{fill:url(#SVGID_160_);}
	.st184{fill:url(#SVGID_161_);}
	.st185{fill:url(#SVGID_162_);}
	.st186{fill:url(#SVGID_163_);}
	.st187{fill:url(#SVGID_164_);}
	.st188{fill:url(#SVGID_165_);}
	.st189{fill:url(#SVGID_166_);}
	.st190{fill:url(#SVGID_167_);}
	.st191{fill:url(#SVGID_168_);}
	.st192{fill:url(#SVGID_169_);}
	.st193{fill:url(#SVGID_170_);}
	.st194{fill:url(#SVGID_171_);}
	.st195{fill:url(#SVGID_172_);}
	.st196{fill:url(#SVGID_173_);}
	.st197{fill:url(#SVGID_174_);}
	.st198{fill:url(#SVGID_175_);}
	.st199{fill:url(#SVGID_176_);}
	.st200{fill:url(#SVGID_177_);}
	.st201{fill:url(#SVGID_178_);}
	.st202{fill:url(#SVGID_179_);}
	.st203{fill:url(#SVGID_180_);}
	.st204{fill:url(#SVGID_181_);}
	.st205{fill:url(#SVGID_182_);}
	.st206{fill:url(#SVGID_183_);}
	.st207{fill:url(#SVGID_184_);}
	.st208{fill:url(#SVGID_185_);}
	.st209{fill:url(#SVGID_186_);}
	.st210{fill:url(#SVGID_187_);}
	.st211{fill:#EA6E6D;}
	.st212{fill:#F47E7D;}
	.st213{fill:#F48E8D;}
	.st214{fill:url(#SVGID_188_);}
	.st215{fill:url(#SVGID_189_);}
	.st216{fill:url(#SVGID_190_);}
	.st217{fill:url(#SVGID_191_);}
	.st218{fill:url(#SVGID_192_);}
	.st219{fill:url(#SVGID_193_);}
	.st220{fill:url(#SVGID_194_);}
	.st221{fill:url(#SVGID_195_);}
	.st222{fill:url(#SVGID_196_);}
	.st223{fill:url(#SVGID_197_);}
	.st224{fill:url(#SVGID_198_);}
	.st225{fill:url(#SVGID_199_);}
	.st226{fill:url(#SVGID_200_);}
	.st227{fill:url(#SVGID_201_);}
	.st228{fill:url(#SVGID_202_);}
	.st229{fill:url(#SVGID_203_);}
	.st230{fill:url(#SVGID_204_);}
	.st231{fill:url(#SVGID_205_);}
	.st232{fill:url(#SVGID_206_);}
	.st233{fill:url(#SVGID_207_);}
	.st234{fill:url(#SVGID_208_);}
	.st235{fill:url(#SVGID_209_);}
	.st236{fill:url(#SVGID_210_);}
	.st237{fill:url(#SVGID_211_);}
	.st238{fill:url(#SVGID_212_);}
	.st239{fill:url(#SVGID_213_);}
	.st240{fill:url(#SVGID_214_);}
	.st241{fill:url(#SVGID_215_);}
	.st242{fill:url(#SVGID_216_);}
	.st243{fill:url(#SVGID_217_);}
	.st244{fill:url(#SVGID_218_);}
	.st245{fill:url(#SVGID_219_);}
	.st246{fill:url(#SVGID_220_);}
	.st247{fill:url(#SVGID_221_);}
	.st248{fill:url(#SVGID_222_);}
	.st249{fill:url(#SVGID_223_);}
	.st250{fill:url(#SVGID_224_);}
	.st251{fill:url(#SVGID_225_);}
	.st252{fill:url(#SVGID_226_);}
</style>
<g>
	<g>
		<g>
			<g>
				<linearGradient id="SVGID_1_" gradientUnits="userSpaceOnUse" x1="220.7742" y1="158.1725" x2="329.4814" y2="158.1725">
					<stop  offset="0" style="stop-color:#FFF2F0"/>
					<stop  offset="1" style="stop-color:#FADAD4"/>
				</linearGradient>
				<path class="st0" d="M231.75,158.47l64.81,37.42c10.5,6.06,23.92,2.46,29.97-8.03l0,0c6.06-10.5,2.46-23.92-8.03-29.97
					l-64.81-37.42c-10.5-6.06-23.92-2.46-29.97,8.03l0,0C217.66,138.99,221.25,152.41,231.75,158.47z"/>
				<linearGradient id="SVGID_2_" gradientUnits="userSpaceOnUse" x1="631.1551" y1="528.0729" x2="739.8622" y2="528.0729">
					<stop  offset="0" style="stop-color:#FFF2F0"/>
					<stop  offset="1" style="stop-color:#FADAD4"/>
				</linearGradient>
				<path class="st1" d="M728.89,527.78l-64.81-37.42c-10.5-6.06-23.92-2.46-29.97,8.03l0,0c-6.06,10.5-2.46,23.92,8.03,29.97
					l64.81,37.42c10.5,6.06,23.92,2.46,29.97-8.03C742.98,547.26,739.38,533.84,728.89,527.78z"/>
				<linearGradient id="SVGID_3_" gradientUnits="userSpaceOnUse" x1="30.6443" y1="266.0763" x2="114.4912" y2="266.0763">
					<stop  offset="0" style="stop-color:#FFF2F0"/>
					<stop  offset="1" style="stop-color:#FADAD4"/>
				</linearGradient>
				<path class="st2" d="M38.94,265.83l50.65,29.24c7.94,4.58,18.09,1.86,22.67-6.07l0,0c4.58-7.94,1.86-18.09-6.07-22.67
					l-50.65-29.24c-7.94-4.58-18.09-1.86-22.67,6.07C28.29,251.09,31.01,261.24,38.94,265.83z"/>
				<linearGradient id="SVGID_4_" gradientUnits="userSpaceOnUse" x1="478.3866" y1="117.5159" x2="562.2335" y2="117.5159">
					<stop  offset="0" style="stop-color:#FFF2F0"/>
					<stop  offset="1" style="stop-color:#FADAD4"/>
				</linearGradient>
				<path class="st3" d="M486.69,117.26l50.65,29.24c7.94,4.58,18.09,1.86,22.67-6.07l0,0c4.58-7.94,1.86-18.09-6.07-22.67
					l-50.65-29.24c-7.94-4.58-18.09-1.86-22.67,6.07C476.03,102.53,478.75,112.68,486.69,117.26z"/>
				<linearGradient id="SVGID_5_" gradientUnits="userSpaceOnUse" x1="685.5087" y1="367.0043" x2="769.3557" y2="367.0043">
					<stop  offset="0" style="stop-color:#FFF2F0"/>
					<stop  offset="1" style="stop-color:#FADAD4"/>
				</linearGradient>
				<path class="st4" d="M761.06,367.26l-50.65-29.24c-7.94-4.58-18.09-1.86-22.67,6.07c-4.58,7.94-1.86,18.09,6.07,22.67
					L744.46,396c7.94,4.58,18.09,1.86,22.67-6.07h0C771.71,381.99,768.99,371.84,761.06,367.26z"/>
				<linearGradient id="SVGID_6_" gradientUnits="userSpaceOnUse" x1="643.438" y1="437.0349" x2="719.799" y2="437.0349">
					<stop  offset="0" style="stop-color:#FFF2F0"/>
					<stop  offset="1" style="stop-color:#FADAD4"/>
				</linearGradient>
				<path class="st5" d="M644.02,415.33L644.02,415.33c-1.19,2.06-0.48,4.7,1.58,5.89l67.74,39.11c2.06,1.19,4.7,0.48,5.89-1.58
					c1.19-2.06,0.48-4.7-1.58-5.89l-67.74-39.11C647.84,412.56,645.21,413.26,644.02,415.33z"/>
				<linearGradient id="SVGID_7_" gradientUnits="userSpaceOnUse" x1="148.4906" y1="240.0689" x2="224.8515" y2="240.0689">
					<stop  offset="0" style="stop-color:#FFF2F0"/>
					<stop  offset="1" style="stop-color:#FADAD4"/>
				</linearGradient>
				<path class="st6" d="M150.65,224.25l67.74,39.11c2.06,1.19,4.7,0.48,5.89-1.58c1.19-2.06,0.48-4.7-1.58-5.89l-67.74-39.11
					c-2.06-1.19-4.7-0.48-5.89,1.58C147.88,220.42,148.58,223.06,150.65,224.25z"/>
				<linearGradient id="SVGID_8_" gradientUnits="userSpaceOnUse" x1="33.2663" y1="487.4163" x2="61.5865" y2="487.4163">
					<stop  offset="0" style="stop-color:#FFF2F0"/>
					<stop  offset="1" style="stop-color:#FADAD4"/>
				</linearGradient>
				<path class="st7" d="M59.95,490.86l-8.04-4.64l4.64-8.04c0.91-1.57,0.37-3.57-1.2-4.48c-1.57-0.91-3.57-0.37-4.48,1.2
					l-4.64,8.04l-8.04-4.64c-1.57-0.91-3.57-0.37-4.48,1.2s-0.37,3.57,1.2,4.48l8.04,4.64l-4.64,8.04c-0.91,1.57-0.37,3.57,1.2,4.48
					s3.57,0.37,4.48-1.2l4.64-8.04l8.04,4.64c1.57,0.91,3.57,0.37,4.48-1.2C62.05,493.77,61.51,491.76,59.95,490.86z"/>
				<linearGradient id="SVGID_9_" gradientUnits="userSpaceOnUse" x1="387.7684" y1="158.1723" x2="464.1292" y2="158.1723">
					<stop  offset="0" style="stop-color:#FFF2F0"/>
					<stop  offset="1" style="stop-color:#FADAD4"/>
				</linearGradient>
				<path class="st8" d="M389.92,142.35l67.74,39.11c2.06,1.19,4.7,0.48,5.89-1.58c1.19-2.06,0.48-4.7-1.58-5.89l-67.74-39.11
					c-2.06-1.19-4.7-0.48-5.89,1.58l0,0C387.16,138.53,387.86,141.16,389.92,142.35z"/>
				<linearGradient id="SVGID_10_" gradientUnits="userSpaceOnUse" x1="624.1509" y1="195.9296" x2="645.9165" y2="195.9296">
					<stop  offset="0" style="stop-color:#FFF2F0"/>
					<stop  offset="1" style="stop-color:#FADAD4"/>
				</linearGradient>
				<path class="st9" d="M635.03,206.81c6,0,10.88-4.88,10.88-10.88c0-6-4.88-10.88-10.88-10.88s-10.88,4.88-10.88,10.88
					C624.15,201.93,629.03,206.81,635.03,206.81z M635.03,188.05c4.35,0,7.88,3.54,7.88,7.88s-3.54,7.88-7.88,7.88
					s-7.88-3.54-7.88-7.88S630.69,188.05,635.03,188.05z"/>
				<linearGradient id="SVGID_11_" gradientUnits="userSpaceOnUse" x1="94.1617" y1="134.3062" x2="114.4912" y2="134.3062">
					<stop  offset="0" style="stop-color:#FFF2F0"/>
					<stop  offset="1" style="stop-color:#FADAD4"/>
				</linearGradient>
				<path class="st10" d="M104.33,144.47c5.6,0,10.17-4.56,10.17-10.16s-4.56-10.16-10.17-10.16c-5.6,0-10.16,4.56-10.16,10.16
					S98.72,144.47,104.33,144.47z M104.33,127.14c3.95,0,7.17,3.21,7.17,7.16s-3.21,7.16-7.17,7.16s-7.16-3.21-7.16-7.16
					S100.38,127.14,104.33,127.14z"/>
				<linearGradient id="SVGID_12_" gradientUnits="userSpaceOnUse" x1="710.4161" y1="253.7186" x2="729.1818" y2="253.7186">
					<stop  offset="0" style="stop-color:#FFF2F0"/>
					<stop  offset="1" style="stop-color:#FADAD4"/>
				</linearGradient>
				<path class="st11" d="M719.8,263.1c5.18,0,9.38-4.2,9.38-9.38c0-5.18-4.2-9.38-9.38-9.38s-9.38,4.2-9.38,9.38
					C710.42,258.9,714.62,263.1,719.8,263.1z"/>
				<g>
					<path class="st12" d="M697.08,600.37H75.63c-2.76,0-5,2.24-5,5s2.24,5,5,5h621.45c2.76,0,5-2.24,5-5
						S699.84,600.37,697.08,600.37z"/>
				</g>
				<g>
					<path class="st12" d="M733.84,600.37h-15.06c-2.76,0-5,2.24-5,5s2.24,5,5,5h15.06c2.76,0,5-2.24,5-5
						S736.6,600.37,733.84,600.37z"/>
				</g>
				<g>
					<path class="st12" d="M475.71,635.86H322.52c-2.76,0-5,2.24-5,5c0,2.76,2.24,5,5,5h153.19c2.76,0,5-2.24,5-5
						C480.71,638.09,478.48,635.86,475.71,635.86z"/>
				</g>
				<g>
					<path class="st12" d="M507.44,636.43h-14.87c-2.76,0-5,2.24-5,5s2.24,5,5,5h14.87c2.76,0,5-2.24,5-5
						S510.2,636.43,507.44,636.43z"/>
				</g>
				<g>
					<path class="st12" d="M679.46,636.43H525.31c-2.76,0-5,2.24-5,5s2.24,5,5,5h154.15c2.76,0,5-2.24,5-5
						S682.22,636.43,679.46,636.43z"/>
				</g>
				<g>
					<path class="st12" d="M199.2,669.81h-15.32c-2.76,0-5,2.24-5,5s2.24,5,5,5h15.32c2.76,0,5-2.24,5-5S201.97,669.81,199.2,669.81
						z"/>
				</g>
				<g>
					<path class="st12" d="M400.67,669.81H299.24c-2.65-3.92-6.67-8.17-15.78-8.17c-7.07,0-12.19,4.35-15.01,8.17h-53.67
						c-2.76,0-5,2.24-5,5s2.24,5,5,5h56.43c1.89,0,3.63-1.07,4.47-2.76c0.03-0.05,2.84-5.41,7.78-5.41c5.17,0,6.32,1.83,8.59,5.48
						l0.21,0.34c0.91,1.46,2.52,2.35,4.24,2.35h104.17c2.76,0,5-2.24,5-5S403.43,669.81,400.67,669.81z"/>
				</g>
				<linearGradient id="SVGID_13_" gradientUnits="userSpaceOnUse" x1="79.0073" y1="401.0617" x2="196.5464" y2="401.0617">
					<stop  offset="0" style="stop-color:#FFF2F0"/>
					<stop  offset="1" style="stop-color:#FADAD4"/>
				</linearGradient>
				<path class="st13" d="M147.41,444.44l-52.02-30.03c-15.67-9.04-21.03-29.08-11.99-44.74l0,0c9.04-15.67,29.08-21.03,44.74-11.99
					l52.02,30.03c15.67,9.04,21.03,29.08,11.99,44.74l0,0C183.11,448.12,163.08,453.49,147.41,444.44z"/>
			</g>
		</g>
		<linearGradient id="SVGID_14_" gradientUnits="userSpaceOnUse" x1="396.2041" y1="163.6638" x2="396.2041" y2="591.8342">
			<stop  offset="0.2961" style="stop-color:#FBEAE6"/>
			<stop  offset="1" style="stop-color:#F9C8C5"/>
		</linearGradient>
		<path class="st14" d="M635.8,591.83c26.32-42.79,41.51-93.15,41.51-147.06c0-155.25-125.86-281.11-281.11-281.11
			c-155.25,0-281.11,125.86-281.11,281.11c0,53.92,15.19,104.28,41.51,147.06H635.8z"/>
		<linearGradient id="SVGID_15_" gradientUnits="userSpaceOnUse" x1="396.2039" y1="227.2385" x2="396.2039" y2="591.8342">
			<stop  offset="0.2263" style="stop-color:#FFDBD9"/>
			<stop  offset="1" style="stop-color:#F79C9B"/>
		</linearGradient>
		<path class="st15" d="M556.48,591.83c35.55-38.72,57.26-90.36,57.26-147.06c0-120.14-97.39-217.53-217.53-217.53
			s-217.53,97.39-217.53,217.53c0,56.71,21.71,108.34,57.26,147.06H556.48z"/>
		<g>
			<path class="st16" d="M276.76,294.8c-5.79,0-10.5-4.71-10.5-10.5s4.71-10.5,10.5-10.5s10.5,4.71,10.5,10.5
				S282.55,294.8,276.76,294.8z M276.76,276.8c-4.14,0-7.5,3.36-7.5,7.5s3.36,7.5,7.5,7.5s7.5-3.36,7.5-7.5
				S280.89,276.8,276.76,276.8z"/>
		</g>
		<circle class="st16" cx="515.35" cy="362.81" r="4.6"/>
		<path class="st16" d="M587.04,446.44L579,441.8l4.64-8.04c0.91-1.57,0.37-3.57-1.2-4.48c-1.57-0.91-3.57-0.37-4.48,1.2l-4.64,8.04
			l-8.04-4.64c-1.57-0.91-3.57-0.37-4.48,1.2s-0.37,3.57,1.2,4.48l8.04,4.64l-4.64,8.04c-0.91,1.57-0.37,3.57,1.2,4.48
			s3.57,0.37,4.48-1.2l4.64-8.04l8.04,4.64c1.57,0.91,3.57,0.37,4.48-1.2C589.15,449.35,588.61,447.34,587.04,446.44z"/>
		<path class="st16" d="M236.46,460.6l-8.04-4.64l4.64-8.04c0.91-1.57,0.37-3.57-1.2-4.48c-1.57-0.91-3.57-0.37-4.48,1.2l-4.64,8.04
			l-8.04-4.64c-1.57-0.91-3.57-0.37-4.48,1.2s-0.37,3.57,1.2,4.48l8.04,4.64l-4.64,8.04c-0.91,1.57-0.37,3.57,1.2,4.48
			s3.57,0.37,4.48-1.2l4.64-8.04l8.04,4.64c1.57,0.91,3.57,0.37,4.48-1.2C238.56,463.51,238.03,461.5,236.46,460.6z"/>
	</g>
	<g>
		<linearGradient id="SVGID_16_" gradientUnits="userSpaceOnUse" x1="202.7225" y1="502.7661" x2="441.7012" y2="502.7661">
			<stop  offset="0" style="stop-color:#F79C9B"/>
			<stop  offset="1" style="stop-color:#F67C7B"/>
		</linearGradient>
		<polygon class="st19" points="204.77,410.37 202.72,546.03 441.7,595.16 441.7,447.76 		"/>
		<polygon class="st17" points="410.3,542.29 415.15,548.7 419.68,548.7 441.7,462.38 441.7,447.76 		"/>
		<linearGradient id="SVGID_17_" gradientUnits="userSpaceOnUse" x1="319.531" y1="387.071" x2="213.0629" y2="387.071">
			<stop  offset="0" style="stop-color:#F7C1BF"/>
			<stop  offset="1" style="stop-color:#F79C9B"/>
		</linearGradient>
		<polygon class="st21" points="319.53,438.14 317.23,336 213.06,407.7 221.87,417.71 		"/>
		<linearGradient id="SVGID_18_" gradientUnits="userSpaceOnUse" x1="317.2332" y1="396.4841" x2="542.297" y2="396.4841">
			<stop  offset="0" style="stop-color:#F79C9B"/>
			<stop  offset="1" style="stop-color:#F67C7B"/>
		</linearGradient>
		<polygon class="st23" points="534,382.46 542.3,367.64 317.23,336 319.53,438.14 451.28,456.97 		"/>
		<linearGradient id="SVGID_19_" gradientUnits="userSpaceOnUse" x1="305.6161" y1="548.697" x2="305.6161" y2="410.3702">
			<stop  offset="0" style="stop-color:#F7C1BF"/>
			<stop  offset="1" style="stop-color:#F79C9B"/>
		</linearGradient>
		<polygon class="st27" points="169.53,493.69 415.15,548.7 441.7,447.76 204.77,410.37 		"/>
		<linearGradient id="SVGID_20_" gradientUnits="userSpaceOnUse" x1="136.0842" y1="356.1609" x2="317.2331" y2="356.1609">
			<stop  offset="0" style="stop-color:#F7C1BF"/>
			<stop  offset="1" style="stop-color:#F79C9B"/>
		</linearGradient>
		<polygon class="st28" points="317.23,330.79 255.83,301.95 136.08,373.79 204.77,410.37 		"/>
		<polygon class="st17" points="136.08,378.86 204.69,415.31 204.77,410.37 136.08,373.79 		"/>
		<linearGradient id="SVGID_21_" gradientUnits="userSpaceOnUse" x1="317.2331" y1="317.9742" x2="595.6587" y2="317.9742">
			<stop  offset="0" style="stop-color:#F7C1BF"/>
			<stop  offset="1" style="stop-color:#F79C9B"/>
		</linearGradient>
		<polygon class="st29" points="595.66,309.56 372,268.3 317.23,330.79 542.3,367.64 		"/>
		<polygon class="st17" points="595.66,316.51 595.66,309.56 542.3,367.64 543.18,372.56 		"/>
		<linearGradient id="SVGID_22_" gradientUnits="userSpaceOnUse" x1="441.7012" y1="481.4029" x2="564.7651" y2="481.4029">
			<stop  offset="0" style="stop-color:#F7C1BF"/>
			<stop  offset="1" style="stop-color:#F79C9B"/>
		</linearGradient>
		<polygon class="st30" points="542.3,367.64 564.77,492.62 441.7,595.16 441.7,447.76 		"/>
		<linearGradient id="SVGID_23_" gradientUnits="userSpaceOnUse" x1="467.7438" y1="435.739" x2="467.7438" y2="544.1573">
			<stop  offset="0" style="stop-color:#F79C9B"/>
			<stop  offset="1" style="stop-color:#F67C7B"/>
		</linearGradient>
		<polygon class="st31" points="447.32,544.16 493.79,512.38 482.55,435.74 441.7,455.6 		"/>
		<linearGradient id="SVGID_24_" gradientUnits="userSpaceOnUse" x1="441.7012" y1="473.6354" x2="499.148" y2="473.6354">
			<stop  offset="0" style="stop-color:#F7C1BF"/>
			<stop  offset="1" style="stop-color:#F79C9B"/>
		</linearGradient>
		<polygon class="st32" points="441.7,455.6 451.91,534.28 499.15,500.1 490.43,412.99 		"/>
		<path class="st18" d="M317.23,330.79l-112.47,79.58L441.7,455.6l100.6-87.96L317.23,330.79z M440.29,445.36L222.25,405.7
			l94.98-68.96l211.02,34.51L440.29,445.36z"/>
	</g>
	<g>
		<path class="st16" d="M366.64,311.77c0,0-21.26-28.84-22.21-50.27c-0.96-21.43,10.72-32.25,42.32-35.45s85.21-6.61,89.81-6.81
			c4.6-0.2,13.6,0.2,6.32,9.81c-7.28,9.61-38.11,29.61-90.96,36.43c-0.57,11.43,1.34,22.85,1.34,22.85L366.64,311.77z"/>
		<path class="st50" d="M482.87,229.05c3.94-5.21,3.1-7.71,0.78-8.88c0.02,1.46-1.05,3.44-5.06,5.81
			c-8.81,5.21-56.17,27.77-98.55,33.91c3.41,10.39,7.24,23.49,7.08,33.84l6.13-5.4c0,0-1.91-11.42-1.34-22.85
			C444.77,258.66,475.59,238.66,482.87,229.05z"/>
		<path class="st16" d="M367.21,336.4c0,0-36.38-17.42-68.55-17.82c-12.45-0.6-18,3-22.02,14.02
			c-4.02,11.02-35.04,119.57-17.81,128.18c5.94,1.4,13.79-3.2,26.43-24.63c12.64-21.43,35.23-67.49,36.38-72.5
			c9.38-0.2,31.79-1.8,43.47-5.61C367.79,342.41,367.21,336.4,367.21,336.4z"/>
		<path class="st50" d="M366.55,348.19c-6.41-0.05-20.01-0.12-27.87,0.03c-10.53,0.2-21.26,2.6-26.81,17.02
			c-5.55,14.42-32.17,70.7-35.62,76.31c-3.44,5.6-14.54,23.34-20.96,14.6c0.82,2.26,1.98,3.85,3.53,4.63
			c5.94,1.4,13.79-3.2,26.43-24.63c12.64-21.43,35.23-67.49,36.38-72.5c9.38-0.2,31.79-1.8,43.47-5.61
			C365.77,354.18,366.23,350.92,366.55,348.19z"/>
		<path class="st16" d="M426.77,415.31c0,0-25.69,28.84,3.05,36.05c16.48,1.2,22.1-2.54,25.8-4.94c3.7-2.4,12.64-7.48,18,1.87
			c5.36,9.35,10.98,23.23,7.91,45.13c-3.06,21.9-3.83,21.1-3.83,28.57c-15.57,15.49-34.47,48.07-20.17,64.09
			c14.3,16.02,90.64-5.07,96.77-9.08c2.3,5.34,10.63,9.65,14.41,5.24c3.78-4.41,4.5-3.76,6.32-2.85s5.65,1.95,7.95-2.25
			c2.3-4.21,3.26-2.95,4.98-2.55s4.4,0.75,7.42-2c3.02-2.75,4.07-10.01-2.92-15.87c-6.99-5.86-13.58-10.21-13.58-10.21
			s10.28-3.61,20.33-11.42c2.3,5.71,5.55,16.72,13.4,17.93c3.93,0.2,4.5-0.4,5.27-1.7c0.77-1.3,1.34-2.9,4.88-2.2
			c3.54,0.7,6.8,0.85,8.33-2.45s4.26-2.35,6.22-2.25c1.96,0.1,8.62-1.4,7.9-8.91s-4.61-10.28-8.31-12.62
			c-3.7-2.34-9-4.74-16.02-14.75s-10.85-17.19-22.72-12.28c-3.06,1.7-5.07,5.11-5.07,5.11l-4.12,0.1c0,0-0.96-2.8,1.34-7.11
			s9.38-20.13-1.34-27.44c-10.72-7.31-17.81-7.24-17.81-7.24s3.32-27.51-38.81-78.78c-1.53-1.87-2.94-2.7-0.54-5.81
			s8.65-13.49,1.31-22.5c-7.34-9.01-22.21-5.14-39.19,8.95C481.98,374.79,426.77,415.31,426.77,415.31z"/>
		<path class="st49" d="M416.2,424.72c0,0,41.97-0.8,64.18-21.23c22.21-20.43,25.28-47.44,17.04-55.37
			C470.81,367.24,416.2,424.72,416.2,424.72z"/>
		<path class="st49" d="M588.96,501.03c0,0-0.96-2.8,1.34-7.11c1.91-3.57,7.1-15.08,2.69-23.07c0.89,9.45-0.82,28.8-26.81,38.99
			c-35.23,13.82-46.34,5.41-49.79-5.41c-1.53-5.41-2.3-11.22,11.11-25.44c-16.09,11.02-21.26,26.24-8.43,41.26
			c12.83,15.02,48.13,0.15,60.32-9.41C587.81,504.24,588.96,501.03,588.96,501.03z"/>
		<path class="st16" d="M363.38,310.16c9.7-19.33,41.17-51.27,96.89-34.65c18.96,6.41,60.51,31.44,37.34,86.52
			c-10.15,19.83-26.55,50.2-76.6,65.42c-8.43,2.67-51.51,11.48-62.04-42.35C355.66,364.97,350.68,335.47,363.38,310.16z"/>
		<path class="st49" d="M583.88,570.73c-1.91-0.4-1.82,0.1-1.63,1.7c0,4.21-6.51,3.91-7.56,3.5c-3.45-1.5-5.55-0.9-6.7,0.3
			s-3.61,1.7-6.03,1.3c-8.01-3.31-13.79-24.43-20.55-41.52c-3.7,5.88-19.28,16.42-40.6,26.91c22.09-5.93,39.7-17.43,39.7-17.43
			s1.02,2.14,8.17,20.83c-23.23,10.41-48.51,14.95-73.28,13.89c-16.09-0.69-19.68-13.9-20.22-23.07
			c-3.78,10.96-4.15,21.66,2.34,28.94c14.3,16.02,90.64-5.07,96.77-9.08c2.3,5.34,10.63,9.65,14.41,5.24
			c3.78-4.41,4.5-3.76,6.32-2.85c1.82,0.9,5.65,1.95,7.95-2.25c2.3-4.21,3.26-2.95,4.98-2.55c1.72,0.4,4.4,0.75,7.42-2
			c2.65-2.42,3.78-8.32-0.73-13.69C598.98,571.77,585.8,571.13,583.88,570.73z"/>
		<path class="st49" d="M645.21,535.48c-0.3-3.13-1.15-5.42-2.31-7.22c2.67,10.05-4.15,12.36-6.58,11.89
			c-2.43-0.47-5.62-0.94-6.51,2.27c-0.89,3.2-4.28,2.8-7.85,2.8c-3.57,0-2.55,1.33-4.47,2.4c-8.68,2.8-11.74-4.01-13.4-9.08
			c-1.66-5.07-4.98-11.88-9.7-20.96c-4.72-9.08-1.31-16.66-1.31-16.66l-3.03,0.07l0,0c-3.45,10.12,2.68,22.32,6,27
			c-15.57,11.22-24,10.82-24,10.82l6.83,7.68c0,0,10.28-3.6,20.33-11.42c2.3,5.71,5.55,16.72,13.4,17.92c3.93,0.2,4.5-0.4,5.27-1.7
			c0.77-1.3,1.34-2.9,4.88-2.2c3.54,0.7,6.8,0.85,8.33-2.45c1.53-3.3,4.26-2.35,6.22-2.25
			C639.27,544.49,645.92,542.99,645.21,535.48z"/>
		
			<ellipse transform="matrix(0.9245 -0.3813 0.3813 0.9245 -164.9568 254.6234)" class="st118" cx="560.08" cy="543.59" rx="6.6" ry="13.33"/>
		
			<ellipse transform="matrix(0.903 -0.4297 0.4297 0.903 -190.7195 297.0089)" class="st118" cx="562.39" cy="570.87" rx="2.64" ry="4.8"/>
		
			<ellipse transform="matrix(0.903 -0.4297 0.4297 0.903 -188.4016 301.8438)" class="st118" cx="574.25" cy="568.15" rx="2.64" ry="4.8"/>
		
			<ellipse transform="matrix(0.8504 -0.5261 0.5261 0.8504 -207.3255 392.2776)" class="st118" cx="586.18" cy="560.73" rx="3.01" ry="5.42"/>
		
			<ellipse transform="matrix(0.9245 -0.3813 0.3813 0.9245 -149.7635 271.1398)" class="st118" cx="609.36" cy="513.51" rx="6.6" ry="13.33"/>
		
			<ellipse transform="matrix(0.903 -0.4297 0.4297 0.903 -173.0141 315.2626)" class="st118" cx="611.66" cy="540.78" rx="2.64" ry="4.8"/>
		
			<ellipse transform="matrix(0.903 -0.4297 0.4297 0.903 -170.6961 320.0975)" class="st118" cx="623.53" cy="538.07" rx="2.64" ry="4.8"/>
		
			<ellipse transform="matrix(0.8504 -0.5261 0.5261 0.8504 -184.1272 413.7029)" class="st118" cx="635.46" cy="530.65" rx="3.01" ry="5.42"/>
	</g>
</g>
</svg>
