<?xml version="1.0" standalone="no"?><!DOCTYPE svg PUBLIC "-//W3C//DTD SVG 1.1//EN" "http://www.w3.org/Graphics/SVG/1.1/DTD/svg11.dtd"><svg t="1625987339510" class="icon" viewBox="0 0 1024 1024" version="1.1" xmlns="http://www.w3.org/2000/svg" p-id="20545" xmlns:xlink="http://www.w3.org/1999/xlink" width="64" height="64"><defs><style type="text/css">@font-face { font-family: element-icons; src: url("chrome-extension://moombeodfomdpjnpocobemoiaemednkg/fonts/element-icons.woff") format("woff"), url("chrome-extension://moombeodfomdpjnpocobemoiaemednkg/fonts/element-icons.ttf ") format("truetype"); }
</style></defs><path d="M861.1328 574.2848c-52.7104 52.7104-138.1888 52.7104-190.9248 0l-269.824-269.824c-52.7104-52.7104-52.7104-138.1888 0-190.9248 52.7104-52.7104 138.1888-52.7104 190.9248 0l269.824 269.824c52.7104 52.736 52.7104 138.2144 0 190.9248z" fill="#A2A1D1" p-id="20546"></path><path d="M406.0672 108.1856s-21.376 97.3568 31.8464 150.6048 136.9856 136.9856 136.9856 136.9856l-44.8256 38.4-156.928-162.9952c0.0256 0-50.4832-75.6736 32.9216-162.9952z" fill="#8B8BC6" p-id="20547"></path><path d="M861.1328 574.2848c-52.7104 52.7104-136.7552 54.1696-187.7248 3.2l-143.3344-143.3344 190.9248-190.9248L864.3328 386.56c50.9696 50.9696 49.5104 135.0144-3.2 187.7248z" fill="#BC88B8" p-id="20548"></path><path d="M580.352 401.5872l145.7664 146.0736s60.7488 49.92 137.5744 16.4608c-35.6096 31.8976-113.536 74.5472-190.2592 13.3632s-136.8576-138.3168-136.8576-138.3168l43.776-37.5808z" fill="#B279B1" p-id="20549"></path><path d="M668.3136 895.1808c-52.7104 52.7104-138.1888 52.7104-190.9248 0l-269.824-269.824c-52.7104-52.7104-52.7104-138.1888 0-190.9248 52.7104-52.7104 138.1888-52.7104 190.9248 0l269.824 269.824c52.7104 52.736 52.7104 138.2144 0 190.9248z" fill="#FFE08A" p-id="20550"></path><path d="M216.2944 434.176s-15.6928 96.7936 26.1376 140.4416 125.4912 130.688 125.4912 130.688l-42.5472 37.888-151.04-158.8992c0-0.0256-46.9248-68.864 41.9584-150.1184z" fill="#F4CC69" p-id="20551"></path><path d="M668.3136 895.1808c-52.7104 52.7104-136.7552 54.1696-187.7248 3.2l-143.3344-143.3344 190.9248-190.9248 143.3344 143.3344c50.944 50.9696 49.5104 135.0144-3.2 187.7248z" fill="#FFA869" p-id="20552"></path><path d="M383.7184 720.2816l131.1232 130.4064c20.1728 20.0448 45.2864 34.6624 72.9856 41.0624 22.3232 5.1712 49.536 6.0928 79.4368-4.1984-32.6912 26.1376-94.9504 80.512-182.784 10.8288s-138.24-138.24-138.24-138.24l37.4784-39.8592z" fill="#F4914E" p-id="20553"></path><path d="M908.3136 749.9264m-36.4288 0a36.4288 36.4288 0 1 0 72.8576 0 36.4288 36.4288 0 1 0-72.8576 0Z" fill="#FFA869" p-id="20554"></path><path d="M139.9296 266.112m-34.3808 0a34.3808 34.3808 0 1 0 68.7616 0 34.3808 34.3808 0 1 0-68.7616 0Z" fill="#FFA869" p-id="20555"></path><path d="M188.1344 813.6192m-33.9456 0a33.9456 33.9456 0 1 0 67.8912 0 33.9456 33.9456 0 1 0-67.8912 0Z" fill="#FFA869" p-id="20556"></path><path d="M880.64 370.2784l-143.3344-143.3344-129.6896-129.6896c-61.6192-61.6192-161.8944-61.6192-223.5136 0s-61.6192 161.8944 0 223.5136l269.824 269.824 3.2 3.2c28.4672 28.4672 66.4064 44.032 107.136 44.032 0.9216 0 1.8176 0 2.7392-0.0256 41.472-0.7168 80.6656-17.4848 110.4128-47.232 61.6192-61.5936 63.0784-160.4352 3.2256-220.288z m-194.1248 187.7248L562.688 434.176l158.336-158.336 123.8272 123.8272c43.648 43.648 43.648 114.688 0 158.336s-114.688 43.648-158.336 0zM416.6912 129.8432c21.8368-21.8368 50.5088-32.7424 79.1808-32.7424s57.344 10.9056 79.1552 32.7424l113.408 113.408-158.336 158.336-113.408-113.408c-43.6736-43.648-43.6736-114.688 0-158.336zM684.6464 688.0256l-0.0512-0.0512-269.824-269.824c-61.6192-61.6192-161.8944-61.6192-223.5136 0C161.408 448 144.9728 487.68 144.9728 529.8944s16.4352 81.8944 46.2848 111.744l129.6896 129.6896 140.1344 140.1344 3.2 3.2c28.4672 28.4672 66.4064 44.032 107.136 44.032 0.9216 0 1.8176 0 2.7392-0.0256 41.472-0.7168 80.6656-17.4848 110.4128-47.232 29.7472-29.7472 46.5152-68.9664 47.232-110.4128 0.7168-41.7536-14.9248-80.768-44.0064-109.8752l-3.1488-3.1232z m-111.7952 223.6672c-29.9008 0-58.0352-11.648-79.1552-32.7936l-123.8272-123.8272 158.336-158.336 39.6288 39.6288 84.2496 84.2496c43.5968 43.648 43.5968 114.6624-0.0512 158.2848-21.1712 21.1456-49.28 32.7936-79.1808 32.7936zM191.0528 529.8944c0-29.9008 11.648-58.0352 32.7936-79.1552 21.8368-21.8368 50.5088-32.7424 79.1808-32.7424s57.344 10.9056 79.1552 32.7424l113.408 113.408-158.336 158.336-113.408-113.408c-21.1456-21.1456-32.7936-49.2544-32.7936-79.1808zM908.3136 682.2656c-37.2992 0-67.6608 30.3616-67.6608 67.6608s30.3616 67.6608 67.6608 67.6608 67.6608-30.3616 67.6608-67.6608c-0.0256-37.3248-30.3616-67.6608-67.6608-67.6608z m0 89.216c-11.904 0-21.5808-9.6768-21.5808-21.5808s9.6768-21.5808 21.5808-21.5808 21.5808 9.6768 21.5808 21.5808-9.7024 21.5808-21.5808 21.5808zM205.1072 266.112c0-35.9424-29.2352-65.152-65.152-65.152s-65.152 29.2352-65.152 65.152 29.2352 65.152 65.152 65.152 65.152-29.2096 65.152-65.152z m-84.2496 0c0-10.5216 8.5504-19.072 19.072-19.072s19.072 8.5504 19.072 19.072-8.5504 19.072-19.072 19.072c-10.5216 0.0256-19.072-8.5504-19.072-19.072zM188.1088 749.0048c-35.6352 0-64.6144 29.0048-64.6144 64.64s28.9792 64.6144 64.6144 64.6144 64.64-28.9792 64.64-64.6144-29.0048-64.64-64.64-64.64z m0 83.1488c-10.2144 0-18.5344-8.32-18.5344-18.5344 0-10.24 8.32-18.56 18.5344-18.56 10.24 0 18.56 8.32 18.56 18.56 0 10.2144-8.32 18.5344-18.56 18.5344z" fill="#474E54" p-id="20557"></path><path d="M804.2752 450.176c-4.608 0-9.2416-1.7664-12.7488-5.3248l-68.736-69.504c-6.9632-7.04-6.8864-18.3808 0.128-25.344 7.04-6.9632 18.3808-6.8864 25.344 0.128l68.736 69.504c6.9632 7.04 6.8864 18.3808-0.128 25.344a17.83808 17.83808 0 0 1-12.5952 5.1968z" fill="#F7F8F8" p-id="20558"></path><path d="M407.9616 567.6032c-4.608 0-9.2416-1.7664-12.7488-5.3248l-68.736-69.504c-6.9632-7.04-6.8864-18.3808 0.128-25.344 7.04-6.9632 18.3808-6.8864 25.344 0.128l68.736 69.504c6.9632 7.04 6.8864 18.3808-0.128 25.344a17.73056 17.73056 0 0 1-12.5952 5.1968z" fill="#F7F8F8" p-id="20559"></path></svg>